<!DOCTYPE svg PUBLIC "-//W3C//DTD SVG 1.1//EN" "http://www.w3.org/Graphics/SVG/1.1/DTD/svg11.dtd">
<!-- Uploaded to: SVG Repo, www.svgrepo.com, Transformed by: SVG Repo Mixer Tools -->
<svg height="800px" width="800px" version="1.1" id="Layer_1" xmlns="http://www.w3.org/2000/svg" xmlns:xlink="http://www.w3.org/1999/xlink" viewBox="0 0 512.001 512.001" xml:space="preserve" fill="#000000">
<g id="SVGRepo_bgCarrier" stroke-width="0"/>
<g id="SVGRepo_tracerCarrier" stroke-linecap="round" stroke-linejoin="round"/>
<g id="SVGRepo_iconCarrier"> <path style="fill:#FEE187;" d="M404.902,437.937c0-10.462-4.372-20.412-12.605-28.733c-5.147-5.574-10.637-10.977-15.957-16.124 c-2.742-2.571-5.486-5.319-8.145-7.974l-23.416-23.42c-18.013-18.008-41.345-18.008-59.353,0c-2.404,2.404-4.89,4.804-7.29,7.208 c-6.432,6.344-13.126,12.866-19.559,19.897c-11.575-5.232-22.984-12.434-36.536-23.156c-13.448-10.944-62.248-59.746-73.192-73.192 c-10.721-13.553-17.925-24.96-23.156-36.536c7.031-6.432,13.551-13.126,19.897-19.559c2.404-2.4,4.804-4.886,7.208-7.29 c18.008-18.008,18.008-41.34,0-59.353l-23.418-23.413c-2.655-2.659-5.403-5.403-7.974-8.145 c-5.147-5.319-10.55-10.809-16.124-15.957c-8.322-8.233-18.272-12.605-28.733-12.605c-10.466,0-20.584,4.372-29.161,12.605 l-0.171,0.171l-11.372,11.628c-10.977,10.977-17.238,24.357-18.611,39.882c-2.057,25.044,5.318,48.374,10.98,63.64 c13.892,37.482,34.652,72.217,65.614,109.443c11.281,13.471,23.261,26.076,35.887,37.816c11.74,12.626,24.346,24.606,37.816,35.887 c37.227,30.962,71.961,51.721,109.443,65.614c15.264,5.662,38.596,13.037,63.64,10.98c15.525-1.373,28.905-7.634,39.882-18.611 l11.628-11.372l0.171-0.171C400.53,458.521,404.902,448.403,404.902,437.937z"/> <g> <path style="fill:#f8d000;" d="M509.517,237.088C509.517,106.357,403.16,0,272.43,0C217.588,0,164.107,19.164,121.84,53.959 c-6.139,5.055-7.018,14.127-1.964,20.264c5.053,6.14,14.124,7.017,20.264,1.965c37.125-30.563,84.107-47.395,132.29-47.395 c114.853,0,208.295,93.44,208.295,208.295c0,63.244-28.863,122.953-77.833,162.367c-0.06-0.063-0.118-0.128-0.178-0.19 c-5.412-5.849-11.061-11.4-16.363-16.53c-0.053-0.053-0.108-0.105-0.164-0.157c-2.447-2.295-4.987-4.829-7.441-7.282 l-23.784-23.788c-11.598-11.595-25.379-17.723-39.857-17.723c-14.48,0-28.26,6.128-39.855,17.723 c-1.134,1.136-2.289,2.269-3.444,3.403c-1.294,1.273-2.588,2.545-3.776,3.734l-1.772,1.748c-3.539,3.485-7.149,7.041-10.764,10.737 c-7.61-4.237-15.452-9.617-24.435-16.718c-12.908-10.538-60.437-58.067-70.979-70.978c-7.103-8.985-12.483-16.826-16.72-24.439 c3.675-3.595,7.211-7.184,10.678-10.704l1.723-1.749c1.283-1.28,2.564-2.583,3.844-3.887c1.126-1.146,2.252-2.292,3.376-3.416 c23.464-23.463,23.464-56.24,0-79.712l-11.313-11.311c4.467-6.051,9.395-11.796,14.746-17.147c58.462-58.46,153.581-58.46,212.04,0 c44.898,44.896,56.658,113.519,29.268,170.755c-3.432,7.171-0.4,15.768,6.772,19.2c2.005,0.959,4.12,1.412,6.205,1.412 c5.368,0,10.524-3.019,12.996-8.186c32.652-68.232,18.633-150.029-34.881-203.544c-69.687-69.684-183.071-69.684-252.758,0 c-5.309,5.311-10.265,10.953-14.855,16.857c-4.988-5.15-10.351-10.59-15.973-15.791c-11.056-10.849-24.423-16.583-38.678-16.583 c-14.274,0-27.803,5.746-39.129,16.615c-0.071,0.069-0.141,0.138-0.21,0.207l-0.171,0.171c-0.037,0.037-0.075,0.076-0.112,0.114 l-11.323,11.577c-13.396,13.422-21.036,29.816-22.716,48.819c-2.285,27.832,5.658,53.178,11.829,69.822 c14.519,39.175,36.14,75.287,68.076,113.683c11.432,13.652,23.791,26.692,36.738,38.76c12.063,12.941,25.103,25.3,38.798,36.769 c38.36,31.904,74.472,53.527,113.643,68.044c14.156,5.249,35.77,12.23,59.926,12.231c0.001,0,0.001,0,0.003,0 c3.328,0,6.658-0.135,9.985-0.409c18.917-1.671,35.314-9.314,48.737-22.716l11.569-11.313c0.037-0.036,0.076-0.073,0.112-0.109 l0.171-0.171c0.071-0.071,0.14-0.143,0.209-0.212c10.871-11.324,16.616-24.855,16.616-39.132c0-4.568-0.596-9.044-1.753-13.383 C475.327,379.755,509.517,310.52,509.517,237.088z M382.005,457.029l-11.573,11.318c-0.039,0.036-0.078,0.076-0.115,0.114 c-8.645,8.645-18.774,13.371-30.879,14.441c-2.457,0.203-4.994,0.305-7.538,0.305c-0.001,0-0.003,0-0.003,0 c-19.526-0.001-37.838-5.956-49.918-10.436c-36.024-13.35-69.465-33.428-105.205-63.152 c-12.879-10.786-25.165-22.444-36.518-34.652c-0.238-0.256-0.484-0.502-0.74-0.74c-12.212-11.357-23.872-23.643-34.622-36.48 C75.14,301.972,55.063,268.53,41.71,232.504c-5.219-14.069-11.946-35.336-10.138-57.366c1.08-12.195,5.806-22.326,14.451-30.969 c0.037-0.037,0.076-0.076,0.114-0.114l11.317-11.573c5.835-5.563,12.434-8.501,19.094-8.501c6.591,0,13.026,2.92,18.61,8.443 c0.118,0.115,0.236,0.229,0.358,0.341c5.338,4.931,10.587,10.269,15.466,15.31c2.574,2.741,5.237,5.409,7.813,7.988l23.823,23.82 c12.389,12.392,12.391,26.604,0,38.995c-1.185,1.186-2.37,2.391-3.554,3.598c-1.212,1.234-2.426,2.469-3.723,3.763l-1.818,1.844 c-5.633,5.718-11.458,11.632-17.546,17.201c-4.592,4.201-5.964,10.878-3.402,16.55c5.723,12.661,13.661,25.225,24.983,39.539 c0.042,0.052,0.083,0.104,0.125,0.155c11.678,14.349,60.921,63.591,75.271,75.269c0.052,0.042,0.104,0.085,0.155,0.125 c14.313,11.323,26.876,19.262,39.538,24.983c5.674,2.565,12.351,1.191,16.551-3.4c5.589-6.108,11.521-11.953,17.26-17.604 l1.869-1.843c1.205-1.206,2.43-2.411,3.658-3.618c1.214-1.192,2.429-2.385,3.622-3.579c6.077-6.078,12.817-9.29,19.494-9.29 c6.677,0,13.419,3.213,19.498,9.29l23.797,23.803c2.588,2.583,5.262,5.253,8.012,7.834c5.029,4.866,10.36,10.106,15.31,15.466 c0.111,0.121,0.226,0.24,0.343,0.358c3.851,3.893,8.442,10.282,8.442,18.609C390.504,444.598,387.566,451.196,382.005,457.029z"/> <path style="fill:#f8d000;" d="M277.301,258.372h-36.456c0.14-4.374,6.873-8.983,14.658-14.313 c13.381-9.159,30.035-20.559,30.035-40.37c0-20.384-18.106-31.382-35.143-31.382c-16.546,0-34.131,10.239-34.131,29.213 c0,8.728,3.891,13.155,11.566,13.155c8.639,0,13.301-4.99,13.301-9.684c0-7.777,5.116-9.409,9.409-9.409 c7.05,0,9.553,4.758,9.553,8.831c0,7.97-9.902,15.238-20.387,22.933c-12.378,9.087-25.178,18.48-25.178,31.165v14.031 c0,5.193,6.568,8.383,11.275,8.383h51.495c4.388,0,8.238-5.337,8.238-11.421C285.538,263.47,281.766,258.372,277.301,258.372z"/> <path style="fill:#f8d000;" d="M354.393,234.938h-4.78v-8.685c0-5.004-4.994-8.238-12.722-8.238 c-7.728,0-12.722,3.233-12.722,8.238v8.685h-8.672l24.599-49.342c0.436-1.016,0.839-2.122,0.839-3.315 c0-6.188-8.238-9.975-12.722-9.975c-4.699,0-8.491,2.331-10.685,6.57l-33.394,65.49c-1.16,2.123-1.333,4.061-1.333,5.029 c0,5.534,3.6,9.251,8.96,9.251h32.409v13.892c0,5.76,6.595,8.383,12.722,8.383c6.127,0,12.722-2.623,12.722-8.383v-13.892h4.78 c4.309,0,8.383-5.761,8.383-11.854C362.775,241.084,360.152,234.938,354.393,234.938z"/> </g> </g>
</svg>