<!DOCTYPE svg PUBLIC "-//W3C//DTD SVG 1.1//EN" "http://www.w3.org/Graphics/SVG/1.1/DTD/svg11.dtd">
<!-- Uploaded to: SVG Repo, www.svgrepo.com, Transformed by: SVG Repo Mixer Tools -->
<svg width="800px" height="800px" viewBox="0 -0.5 25 25" fill="none" xmlns="http://www.w3.org/2000/svg">
<g id="SVGRepo_bgCarrier" stroke-width="0"/>
<g id="SVGRepo_tracerCarrier" stroke-linecap="round" stroke-linejoin="round"/>
<g id="SVGRepo_iconCarrier"> <path fill-rule="evenodd" clip-rule="evenodd" d="M17.817 16.063V14.721C17.817 14.3887 17.949 14.07 18.184 13.835L19.133 12.886C19.6223 12.3967 19.6223 11.6033 19.133 11.114L18.184 10.165C17.949 9.93001 17.817 9.61131 17.817 9.27899V7.93599C17.817 7.24398 17.256 6.68299 16.564 6.68299H15.221C14.8887 6.68299 14.57 6.55097 14.335 6.31599L13.386 5.36699C12.8967 4.87767 12.1033 4.87767 11.614 5.36699L10.665 6.31599C10.43 6.55097 10.1113 6.68299 9.77899 6.68299H8.43599C8.1035 6.68299 7.78464 6.81514 7.54963 7.05034C7.31462 7.28554 7.18273 7.6045 7.18299 7.93699V9.27899C7.18299 9.61131 7.05097 9.93001 6.81599 10.165L5.86699 11.114C5.37767 11.6033 5.37767 12.3967 5.86699 12.886L6.81599 13.835C7.05097 14.07 7.18299 14.3887 7.18299 14.721V16.063C7.18299 16.755 7.74398 17.316 8.43599 17.316H9.77899C10.1113 17.316 10.43 17.448 10.665 17.683L11.614 18.632C12.1033 19.1213 12.8967 19.1213 13.386 18.632L14.335 17.683C14.57 17.448 14.8887 17.316 15.221 17.316H16.563C16.8955 17.3163 17.2144 17.1844 17.4496 16.9493C17.6848 16.7143 17.817 16.3955 17.817 16.063Z" stroke="#f8d000" stroke-width="1.5" stroke-linecap="round" stroke-linejoin="round"/> <path fill-rule="evenodd" clip-rule="evenodd" d="M9.78202 10.641C9.50715 10.3662 9.42492 9.95286 9.57366 9.59375C9.7224 9.23464 10.0728 9.00049 10.4615 9.00049C10.8502 9.00049 11.2006 9.23464 11.3494 9.59375C11.4981 9.95286 11.4159 10.3662 11.141 10.641C10.7657 11.0163 10.1573 11.0163 9.78202 10.641Z" stroke="#f8d000" stroke-width="1.5" stroke-linecap="round" stroke-linejoin="round"/> <path fill-rule="evenodd" clip-rule="evenodd" d="M13.859 14.718C13.5841 14.4431 13.5019 14.0298 13.6506 13.6707C13.7994 13.3115 14.1498 13.0774 14.5385 13.0774C14.9272 13.0774 15.2776 13.3115 15.4263 13.6707C15.5751 14.0298 15.4928 14.4431 15.218 14.718C14.8427 15.0932 14.2343 15.0932 13.859 14.718Z" stroke="#f8d000" stroke-width="1.5" stroke-linecap="round"/> <path d="M15.218 9.28101L9.78101 14.719" stroke="#f8d000" stroke-width="1.5" stroke-linecap="round"/> </g>
</svg>