<!DOCTYPE svg PUBLIC "-//W3C//DTD SVG 1.1//EN" "http://www.w3.org/Graphics/SVG/1.1/DTD/svg11.dtd">
<!-- Uploaded to: SVG Repo, www.svgrepo.com, Transformed by: SVG Repo Mixer Tools -->
<svg fill="#f8d000" height="210px" width="210px" version="1.1" id="Capa_1" xmlns="http://www.w3.org/2000/svg" xmlns:xlink="http://www.w3.org/1999/xlink" viewBox="-32.67 -32.67 362.34 362.34" xml:space="preserve" stroke="#f8d000" transform="matrix(1, 0, 0, 1, 0, 0)rotate(0)" stroke-width="8.316">
<g id="SVGRepo_bgCarrier" stroke-width="0"/>
<g id="SVGRepo_tracerCarrier" stroke-linecap="round" stroke-linejoin="round" stroke="#CCCCCC" stroke-width="1.1880000000000002"/>
<g id="SVGRepo_iconCarrier"> <g> <path d="M95.499,204.96c-10.286,0-18.653,8.368-18.653,18.654c0,10.289,8.367,18.656,18.653,18.656 c10.288,0,18.655-8.367,18.655-18.656C114.154,213.328,105.787,204.96,95.499,204.96z"/> <path d="M234.115,204.96c-10.286,0-18.653,8.368-18.653,18.654c0,10.289,8.367,18.656,18.653,18.656 c10.288,0,18.655-8.367,18.655-18.656C252.77,213.328,244.403,204.96,234.115,204.96z"/> <path d="M280.772,136.763l-0.081-23.753c-0.019-5.445-4.437-9.851-9.884-9.851h-14.828l-8.401,33.604H280.772z"/> <path d="M247.841,66.757c0.651-2.927-0.063-5.99-1.938-8.327c-1.877-2.339-4.713-3.7-7.711-3.7H83.27 c-4.634,0-8.645,3.217-9.648,7.74l-1.905,8.568H50.653c-5.458,0-9.884,4.425-9.884,9.883s4.426,9.884,9.884,9.884h16.67 l-4.666,21.002H26.192c-5.46,0-9.884,4.427-9.884,9.884c0,5.459,4.424,9.884,9.884,9.884h32.073l-4.668,21.003H9.884 c-5.458,0-9.884,4.426-9.884,9.884c0,5.458,4.426,9.884,9.884,9.884h39.32l-8.199,36.895c-0.649,2.926,0.063,5.99,1.938,8.328 c1.876,2.339,4.712,3.699,7.71,3.699h6.503c1.217-20.097,17.947-36.074,38.343-36.074c20.397,0,37.127,15.977,38.345,36.074h61.928 c0.883-14.55,9.898-26.938,22.549-32.668L247.841,66.757z"/> <path d="M295.13,156.429c-1.429-1.98-3.523-3.33-5.857-3.852h-45.647l-8.162,32.648c19.733,0.684,35.729,16.317,36.986,35.904 c3.49-0.592,6.548-3.04,7.74-6.634l16.309-49.171C297.496,162.31,296.988,159.003,295.13,156.429z"/> </g> </g>
</svg>