<?xml version="1.0" encoding="utf-8"?>
<!-- Generator: Adobe Illustrator 27.5.0, SVG Export Plug-In . SVG Version: 6.00 Build 0)  -->
<svg version="1.1" xmlns="http://www.w3.org/2000/svg" xmlns:xlink="http://www.w3.org/1999/xlink" x="0px" y="0px"
	 viewBox="0 0 500 500" style="enable-background:new 0 0 500 500;" xml:space="preserve">
<g id="BACKGROUND">
	<rect style="fill:#FFFFFF;" width="500" height="500"/>
</g>
<g id="OBJECTS">
	<g>
		<g>
			<path style="fill:#CCE1F7;" d="M231.613,144.744c-15.387-55.818-84.725-73.799-124.463-32.083
				c-0.571,0.599-1.141,1.208-1.711,1.827c-56.969,61.928-30.057,214.538,88.837,253.218
				c118.894,38.68,242.56-31.953,249.507-95.094c6.947-63.141-47.905-82.981-133.028-65.325
				C262.663,217.261,241.192,179.492,231.613,144.744z"/>
			<path style="fill:#CCE1F7;" d="M351.57,157.596c-15.907,2.59-20.316,16.683-8.034,26.681c4.06,3.305,9.857,6.05,18.117,7.42
				c31.463,5.22,48.159-8.701,35.547-26.749C389.416,153.809,367.334,155.029,351.57,157.596z"/>
			<path style="fill:#CCE1F7;" d="M62.428,251.787c-9.889-12.726-24.373-9.849-27.271,5.721c-0.958,5.146-0.593,11.551,2.159,19.458
				c10.48,30.122,30.695,38.116,40.503,18.403C83.872,283.201,72.229,264.399,62.428,251.787z"/>
			<path style="fill:#CCE1F7;" d="M279.153,129.446l1.653-8.426l-7.895-1.549c-0.005-2.075-0.359-4.155-1.045-6.167l6.505-4.37
				l-4.789-7.128l-6.226,4.183c-1.853-1.882-4.032-3.33-6.391-4.3l1.551-7.896l-8.426-1.653l-1.597,8.138
				c-1.729,0.096-3.45,0.425-5.127,0.998l-4.37-6.506l-7.128,4.789l4.183,6.226c-1.882,1.853-3.33,4.032-4.3,6.391l-6.902-1.356
				l-1.655,8.426l7.145,1.402c0.123,2.205,0.616,4.404,1.517,6.502l-6.227,4.183l4.789,7.128l6.506-4.37
				c1.867,1.627,3.999,2.848,6.277,3.647l-1.561,7.943l8.426,1.653l1.691-8.611c1.852-0.204,3.688-0.68,5.454-1.439l4.183,6.228
				l7.128-4.789l-4.37-6.505c1.163-1.335,2.119-2.805,2.863-4.37L279.153,129.446z M257.99,126.071
				c-3.603,2.42-8.502,1.459-10.922-2.144c-2.42-3.603-1.459-8.502,2.144-10.922c3.603-2.42,8.502-1.459,10.922,2.144
				S261.593,123.651,257.99,126.071z"/>
			<path style="fill:#CCE1F7;" d="M231.533,90.714l0.903-4.605l-4.314-0.847c-0.003-1.134-0.196-2.271-0.571-3.371l3.555-2.388
				l-2.617-3.895l-3.402,2.286c-1.013-1.029-2.204-1.82-3.493-2.35l0.848-4.315l-4.605-0.903l-0.873,4.447
				c-0.945,0.053-1.885,0.233-2.802,0.546l-2.388-3.556l-3.895,2.617l2.286,3.403c-1.029,1.013-1.82,2.203-2.35,3.493l-3.772-0.741
				l-0.904,4.605l3.905,0.766c0.067,1.205,0.337,2.406,0.829,3.553l-3.403,2.286l2.617,3.895l3.556-2.388
				c1.02,0.889,2.185,1.556,3.43,1.993l-0.853,4.341l4.605,0.903l0.924-4.706c1.012-0.112,2.016-0.371,2.981-0.786l2.286,3.403
				l3.895-2.617l-2.388-3.555c0.636-0.73,1.158-1.533,1.564-2.388L231.533,90.714z M219.968,88.87
				c-1.969,1.323-4.646,0.797-5.969-1.172c-1.323-1.969-0.797-4.646,1.172-5.969c1.969-1.322,4.646-0.797,5.969,1.172
				C222.462,84.87,221.937,87.547,219.968,88.87z"/>
			<path style="fill:#CCE1F7;" d="M463.098,114.24l0.903-4.605l-4.314-0.847c-0.003-1.134-0.196-2.271-0.571-3.371l3.555-2.388
				l-2.617-3.895l-3.402,2.286c-1.013-1.029-2.204-1.82-3.493-2.35l0.848-4.315l-4.605-0.903l-0.873,4.447
				c-0.945,0.053-1.885,0.233-2.802,0.546l-2.388-3.556l-3.895,2.617l2.286,3.403c-1.028,1.013-1.82,2.203-2.35,3.493l-3.772-0.741
				l-0.904,4.605l3.905,0.766c0.067,1.205,0.337,2.407,0.829,3.553l-3.403,2.286l2.617,3.895l3.556-2.388
				c1.02,0.889,2.185,1.556,3.43,1.993l-0.853,4.341l4.605,0.903l0.924-4.706c1.012-0.112,2.016-0.371,2.981-0.786l2.286,3.403
				l3.895-2.617l-2.388-3.555c0.636-0.73,1.158-1.533,1.565-2.388L463.098,114.24z M451.533,112.396
				c-1.969,1.322-4.646,0.797-5.969-1.172c-1.323-1.969-0.797-4.646,1.172-5.969c1.969-1.323,4.646-0.797,5.969,1.172
				C454.027,108.396,453.502,111.074,451.533,112.396z"/>
			<path style="fill:#CCE1F7;" d="M69.425,171.462l0.903-4.605l-4.315-0.847c-0.003-1.134-0.196-2.271-0.571-3.37l3.555-2.388
				l-2.617-3.895l-3.402,2.286c-1.013-1.029-2.204-1.82-3.493-2.35l0.847-4.315l-4.605-0.903l-0.873,4.447
				c-0.945,0.053-1.885,0.233-2.802,0.546l-2.388-3.556l-3.895,2.617l2.286,3.403c-1.029,1.013-1.82,2.203-2.35,3.493l-3.772-0.741
				l-0.904,4.605l3.905,0.766c0.067,1.205,0.337,2.406,0.829,3.553l-3.403,2.286l2.617,3.895l3.556-2.388
				c1.02,0.889,2.185,1.556,3.43,1.993l-0.853,4.341l4.605,0.903l0.924-4.706c1.012-0.112,2.016-0.371,2.981-0.786l2.286,3.403
				l3.895-2.617l-2.388-3.555c0.636-0.73,1.158-1.533,1.564-2.388L69.425,171.462z M57.86,169.617
				c-1.969,1.322-4.646,0.797-5.969-1.172c-1.323-1.969-0.797-4.646,1.172-5.969c1.969-1.323,4.646-0.797,5.969,1.172
				C60.354,165.617,59.829,168.295,57.86,169.617z"/>
		</g>
	</g>
	<path style="fill:#CCE1F7;" d="M249.68,400.451c-76.285,0-142.976-3.327-179.169-8.291c-3.806-0.522-4.96,4.987-1.266,6.041
		c24.696,7.046,59.666,7.536,82.006,9.942c38.51,4.148,94.5,3,98.43,16.42c3.927,13.423,4.32,27.628-34.93,25.628
		c-42.589-2.17-35.5-25.628-35.5-25.628c-39.5,1.125-133.5-8.122-143.898-24.112c-10.28-15.808,8.558-19.465,8.986-19.545
		c0.002-0.001,0.004-0.001,0.006-0.002c15.91-8.027,101.783-14.16,205.335-14.16c114.862,0,207.977,7.545,207.977,16.852
		C457.657,392.906,364.542,400.451,249.68,400.451z"/>
	<g>
		<g>
			<path style="fill:#3B73AB;" d="M107.153,351.603c-9.158-9.231-29.163-30.867-41.766-55.43
				c-18.086-35.252-36.222-32.101-39.781-19.64c-9.204,32.229,45.006,67.256,67.484,80.194L107.153,351.603z"/>
			<g>
				<path style="fill:#00528A;" d="M102.203,353.406C86.42,341.57,73.077,327.568,64.01,317.002
					c-12.125-14.128-19.428-25.328-19.502-25.442c-0.261-0.402-0.8-0.517-1.203-0.253c-0.404,0.26-0.519,0.799-0.256,1.202
					c0.071,0.113,7.427,11.391,19.62,25.605c8.956,10.441,22.064,24.216,37.585,36.003L102.203,353.406z"/>
			</g>
		</g>
		<g>
			<path style="fill:#00528A;" d="M104.885,339.197c-4.242-8.465-12.285-26.2-15.267-44.272
				c-4.456-27.002-17.049-28.757-22.019-21.312c-13.651,20.447,19.063,58.059,29.498,69.193L104.885,339.197z"/>
			<g>
				<path style="fill:#01305A;" d="M101.92,340.57c-7.967-11.18-13.844-23.312-17.604-32.237
					c-4.993-11.851-7.433-20.759-7.457-20.849c-0.087-0.319-0.417-0.509-0.738-0.421c-0.321,0.086-0.51,0.416-0.422,0.737
					c0.023,0.089,2.481,9.059,7.5,20.981c3.764,8.941,9.643,21.08,17.611,32.303L101.92,340.57z"/>
			</g>
		</g>
		<g>
			<path style="fill:#3B73AB;" d="M405.068,214.551c8.44-9.892,26.766-32.967,37.491-58.407
				c15.391-36.509,33.713-34.727,38.195-22.568c11.595,31.448-39.835,70.442-61.279,85.029L405.068,214.551z"/>
			<g>
				<path style="fill:#00528A;" d="M410.14,215.978c14.851-12.986,27.106-27.95,35.355-39.167
					c11.031-14.998,17.474-26.714,17.539-26.833c0.23-0.42,0.759-0.575,1.18-0.343c0.422,0.229,0.577,0.758,0.345,1.179
					c-0.062,0.118-6.552,11.916-17.645,27.004c-8.148,11.083-20.186,25.803-34.779,38.72L410.14,215.978z"/>
			</g>
		</g>
		<g>
			<path style="fill:#00528A;" d="M406.399,202.01c3.595-8.76,10.285-27.048,11.903-45.292c2.418-27.26,14.844-29.955,20.358-22.904
				c15.146,19.365-14.655,59.326-24.225,71.211L406.399,202.01z"/>
			<g>
				<g>
					<g>
						<path style="fill:#01305A;" d="M409.458,203.157c7.106-11.746,12.057-24.285,15.136-33.467
							c4.09-12.192,5.855-21.258,5.872-21.349c0.063-0.325,0.378-0.538,0.704-0.475c0.326,0.061,0.54,0.377,0.476,0.703
							c-0.016,0.091-1.794,9.22-5.906,21.484c-3.083,9.198-8.034,21.744-15.139,33.533L409.458,203.157z"/>
					</g>
				</g>
			</g>
		</g>
		<path style="fill:#00528A;" d="M148.715,111.193c1.574-14.739,0.348-28.984-6.986-25.471c-7.342,3.517-4.769,27.991,5.214,44.134
			l2.083,6.303c-7.07-11.892-21.176-21.966-26.965-18.201c-5.753,3.742,4.245,9.596,14.27,13.419
			c7.631,2.91,11.959,6.564,13.969,8.635l9.836,29.772c-11.249-18.799-33.531-34.678-42.692-28.72
			c-9.129,5.938,6.736,15.226,22.642,21.292c12.02,4.584,18.88,10.335,22.1,13.632l1.961,5.936c1.083-0.179,2.164-0.364,3.244-0.555
			l-11.702-35.42c0.786-3.041,2.346-7.204,5.436-12.045c5.773-9.043,10.317-19.701,3.467-19.279
			c-5.945,0.366-10.726,12.684-11.027,24.894l-4.047-12.249C148.91,123.267,148.035,117.555,148.715,111.193z"/>
		<path style="fill:#3B73AB;" d="M454.469,286.144c3.979-14.279,10.377-27.065,15.897-21.092c5.525,5.979-5.902,27.774-21.14,39.091
			l-4.263,5.089c10.961-8.441,27.79-12.596,31.78-6.959c3.965,5.602-7.488,7.35-18.216,7.202c-8.166-0.112-13.538,1.686-16.17,2.867
			l-20.133,24.037c17.395-13.318,43.965-19.848,50.279-10.929c6.292,8.888-11.882,11.663-28.903,11.428
			c-12.863-0.177-21.362,2.634-25.571,4.509l-4.014,4.793c-0.94-0.566-1.877-1.137-2.81-1.714l23.953-28.597
			c0.392-3.116,0.48-7.561-0.605-13.201c-2.027-10.535-2.314-22.118,3.896-19.197c5.39,2.535,5.285,15.747,1.058,27.206l8.284-9.89
			C449.83,297.293,452.752,292.307,454.469,286.144z"/>
		<g>
			<g>
				<g>
					<path style="fill:#00528A;" d="M120.8,263.796h16.46c-8.894-1.47-30.945-10.937-32.911-29.919
						c-2.49-24.043-11.052-23.743-25.479-26.258S60.47,209.21,51.31,190.544c-9.16-18.666-29.596-21.019-29.596-21.019
						s18.626,20.323,15.062,35.769c-3.565,15.445,8.787,21.614,18.678,23.555c9.891,1.941,7.52,15.234,11.279,23.772
						c1.715,3.896,8.736,7.935,15.864,11.175H120.8z"/>
				</g>
			</g>
			<g>
				<g>
					<g>
						<path style="fill:#01305A;" d="M85.147,240.128c0.719,7.2,4.859,15.764,11.075,22.905c0.219,0.251,0.446,0.506,0.678,0.763
							h1.873c-0.536-0.564-1.043-1.121-1.516-1.664c-5.947-6.831-10.065-15.316-10.748-22.141
							c-1.085-10.866-9.481-18.271-27.228-24.009c-10.301-3.329-13.554-15.904-13.584-16.032c-0.092-0.366-0.464-0.591-0.831-0.499
							c-0.369,0.092-0.593,0.464-0.501,0.83c0.136,0.547,3.46,13.44,14.493,17.007C76.014,222.834,84.123,229.879,85.147,240.128z"
							/>
					</g>
				</g>
			</g>
		</g>
		<g>
			<g>
				<g>
					<path style="fill:#3B73AB;" d="M112.333,263.796h34.602c0.01-0.035,0.02-0.07,0.029-0.104
						c0.972-3.456,1.522-7.014,1.644-10.603c0.412-12.111,0.617-42.523-7.211-50.312c-9.84-9.791-29.563-13.618-26.961-28.389
						c2.602-14.771,0.654-35.222-22.697-38.545s-41.59-40.064-41.59-40.064s-7.679,29.631,13.329,52.343s13.18,26.031,8.945,47.405
						s-9.237,33.099,22.807,49.432C103.921,249.39,109.221,256.209,112.333,263.796z"/>
				</g>
			</g>
			<g>
				<g>
					<path style="fill:#00528A;" d="M94.524,172.813c-1.539,27.709,4.246,43.332,18.749,50.657
						c9.109,4.604,18.682,14.864,24.981,26.778c1.988,3.762,4.012,8.332,5.583,13.549h2.13c-1.638-5.605-3.791-10.502-5.907-14.503
						c-6.585-12.454-16.256-22.788-25.867-27.642c-13.681-6.911-19.118-21.94-17.629-48.726
						c0.957-17.227-15.161-28.746-15.848-29.228c-0.459-0.324-1.097-0.212-1.421,0.251c-0.324,0.459-0.212,1.097,0.248,1.421
						C79.704,145.479,95.419,156.73,94.524,172.813z"/>
				</g>
			</g>
		</g>
		<g>
			<g>
				<g>
					<path style="fill:#00528A;" d="M314.158,208.941h16.856l17.09-11.133c4.203-6.605,7.882-13.822,7.192-18.022
						c-1.511-9.206-10.753-19.049-3.525-26.075c7.228-7.026,14.211-18.936,2.793-29.932c-11.417-10.996-6.904-38.191-6.904-38.191
						s-15.84,13.126-13.326,33.766c2.514,20.64-3.057,19.37-13.772,29.351c-10.715,9.981-18.053,14.403-7.016,35.908
						C317.671,192.649,316.86,201.354,314.158,208.941z"/>
				</g>
			</g>
			<g>
				<g>
					<g>
						<path style="fill:#01305A;" d="M333.048,179.369c3.328,6.425,4.533,15.861,3.223,25.237c-0.046,0.33-0.097,0.667-0.152,1.009
							l-1.569,1.022c0.141-0.765,0.262-1.509,0.362-2.221c1.254-8.97,0.073-18.327-3.079-24.418
							c-5.022-9.697-2.029-20.485,9.709-34.979c6.814-8.412,2.676-20.724,2.631-20.848c-0.123-0.357,0.067-0.749,0.424-0.871
							c0.359-0.125,0.75,0.065,0.873,0.422c0.185,0.533,4.437,13.149-2.861,22.161C331.26,159.894,328.311,170.222,333.048,179.369z
							"/>
					</g>
				</g>
			</g>
		</g>
		<g>
			<g>
				<path style="fill:#3B73AB;" d="M377.631,208.941c1.976-1.642,4.205-3.125,6.719-4.407
					c32.044-16.333,27.043-28.059,22.807-49.432c-4.235-21.374-12.063-24.693,8.945-47.405
					c21.008-22.712,13.329-52.343,13.329-52.343s-18.239,36.741-41.59,40.064c-23.351,3.323-25.3,23.774-22.697,38.545
					c2.602,14.771-17.121,18.598-26.961,28.389c-7.117,7.082-7.593,32.863-7.312,46.589H377.631z"/>
			</g>
			<g>
				<g>
					<path style="fill:#00528A;" d="M341.802,208.941c6.299-11.536,15.622-21.407,24.505-25.897
						c14.503-7.325,20.288-22.948,18.749-50.657c-0.895-16.083,14.82-27.334,14.982-27.444c0.459-0.324,0.572-0.961,0.248-1.421
						c-0.325-0.463-0.962-0.575-1.421-0.251c-0.687,0.482-16.805,12-15.848,29.228c1.489,26.786-3.948,41.815-17.629,48.726
						c-9.611,4.854-19.282,15.188-25.867,27.642c-0.013,0.024-0.026,0.049-0.038,0.074H341.802z"/>
				</g>
			</g>
		</g>
	</g>
	<g>
		<g>
			<g>
				<path style="fill:#01305A;" d="M419.402,168.376v180.91c0,7.458-6.046,13.504-13.504,13.504H97.586
					c-7.458,0-13.504-6.046-13.504-13.504v-180.91c0-7.458,6.046-13.504,13.504-13.504h308.312
					C413.356,154.872,419.402,160.918,419.402,168.376z"/>
				<path style="fill:#FFFFFF;" d="M404.507,177.573v162.515c0,4.783-3.875,8.66-8.657,8.66H107.637
					c-2.02,0-3.877-0.693-5.352-1.853c-0.39-0.307-0.755-0.65-1.088-1.02c-1.382-1.53-2.22-3.563-2.22-5.787V177.573
					c0-4.783,3.88-8.66,8.66-8.66H395.85c1.6,0,3.095,0.432,4.38,1.19c1.207,0.71,2.23,1.705,2.97,2.893
					C404.03,174.323,404.507,175.893,404.507,177.573z"/>
				<g>
					<g>
						<path style="fill:#FF7C78;" d="M203.846,290.728h-11.81v15.238h-29.08v-15.238H116.86V271.68l37.716-54.605h30.731
							l-33.525,50.414h12.064v-13.588h28.191v13.588h11.81V290.728z"/>
					</g>
					<g>
						<path style="fill:#FF7C78;" d="M208.034,261.521c0-29.461,16.763-46.478,40.255-46.478c23.493,0,40.255,17.016,40.255,46.478
							c0,29.461-16.762,46.478-40.255,46.478C224.797,307.999,208.034,290.982,208.034,261.521z M258.448,261.521
							c0-17.143-4.317-22.477-10.159-22.477c-5.841,0-10.159,5.334-10.159,22.477s4.318,22.477,10.159,22.477
							C254.131,283.998,258.448,278.664,258.448,261.521z"/>
					</g>
					<g>
						<path style="fill:#FF7C78;" d="M382.001,290.728h-11.81v15.238h-29.08v-15.238h-46.097V271.68l37.715-54.605h30.731
							l-33.525,50.414h12.064v-13.588h28.191v13.588h11.81V290.728z"/>
					</g>
				</g>
			</g>
			<path style="fill:#01305A;" d="M450.725,355.56v1.156c0,5.755-1.846,11.077-4.979,15.405
				c-4.778,6.61-12.555,10.911-21.336,10.911H79.075c-8.781,0-16.558-4.3-21.336-10.911c-3.134-4.328-4.979-9.65-4.979-15.405
				v-1.156H450.725z"/>
			<path style="fill:#01305A;" d="M207.139,355.56v0.264c0,2.084,1.395,3.773,3.117,3.773h81.243c1.721,0,3.116-1.689,3.116-3.773
				v-0.264H207.139z"/>
			<g>
				<path style="opacity:0.2;fill:#01305A;" d="M404.506,177.573v9.588H98.978v-9.588c0-1.845,0.575-3.553,1.562-4.955
					c1.562-2.24,4.159-3.705,7.098-3.705H395.85c2.94,0,5.537,1.465,7.095,3.705C403.931,174.02,404.506,175.727,404.506,177.573z"
					/>
				<path style="fill:#FFFFFF;" d="M330.699,180.928H168.659c-0.415,0-0.755-0.34-0.755-0.755v-3.339
					c0-0.415,0.339-0.754,0.754-0.754h162.041c0.415,0,0.754,0.34,0.754,0.755v3.339
					C331.454,180.589,331.114,180.928,330.699,180.928z"/>
				<path style="fill:#01305A;" d="M128.85,178.504v1.797c0,0.515-0.558,0.837-1.004,0.58l-1.556-0.898l-1.556-0.898
					c-0.446-0.258-0.446-0.902,0-1.16l1.556-0.898l1.556-0.898c0.446-0.258,1.004,0.064,1.004,0.58V178.504z"/>
				<path style="fill:#01305A;" d="M136.947,178.504v1.797c0,0.515,0.558,0.837,1.004,0.58l1.556-0.898l1.556-0.898
					c0.446-0.258,0.446-0.902,0-1.16l-1.556-0.898l-1.556-0.898c-0.446-0.258-1.004,0.064-1.004,0.58V178.504z"/>
			</g>
			<path style="opacity:0.2;fill:#01305A;" d="M402.945,172.618H100.54c1.562-2.24,4.159-3.705,7.098-3.705H395.85
				C398.79,168.913,401.387,170.378,402.945,172.618z"/>
			<path style="opacity:0.1;fill:#01305A;" d="M341.961,334.867H157.397c-3.609,0-6.534-2.925-6.534-6.534l0,0
				c0-3.609,2.925-6.534,6.534-6.534h184.564c3.609,0,6.534,2.925,6.534,6.534v0C348.495,331.942,345.57,334.867,341.961,334.867z"
				/>
		</g>
	</g>
	<g>
		<g>
			<path style="fill:#FFC0AD;" d="M367.125,303.691c-1.425,2.723-2.805,5.073-4.138,7.092c-9.908,15-17.275,11.785-21.24,7.158
				c-1.405-1.64-2.415-3.36-3.138-4.952c-1.18-2.608-1.595-4.867-1.73-5.853l1.84,0.427c2.18,1.003,5.792,2.38,8.472,1.963
				c0.343-0.055,0.67-0.138,0.975-0.253c2.403-0.913,5.673-5.635,7.885-9.23c1.45-2.355,2.448-4.227,2.448-4.227L367.125,303.691z"
				/>
			<path style="fill:#FDA084;" d="M367.125,303.691c-1.425,2.723-2.805,5.073-4.138,7.092c-2.815-3.085-5.362-7.63-6.935-10.74
				c1.45-2.355,2.448-4.227,2.448-4.227L367.125,303.691z"/>
			<path style="fill:#FDA084;" d="M349.332,310.023c0,0-1.999,6.126-10.723,2.965c-1.18-2.608-1.595-4.867-1.73-5.853l1.84,0.427
				c2.18,1.003,5.792,2.38,8.472,1.963L349.332,310.023z"/>
		</g>
		<g>
			<path style="fill:#FFC0AD;" d="M430.625,325.651c-2,11.54-11.383,3.068-12.193-5.945c-0.182-2.025-0.232-4.095-0.202-6.09
				c0.03-1.86,0.127-3.655,0.255-5.283c0.025-0.315,0.05-0.622,0.078-0.923c0.348-3.922,0.84-6.675,0.84-6.675l6.135-7.545
				c0,0,0.715,2.115,1.63,5.37c0.843,3.007,1.855,6.987,2.623,11.172c0.232,1.265,0.442,2.548,0.617,3.828
				C431.007,317.888,431.225,322.191,430.625,325.651z"/>
			<path style="fill:#FDA084;" d="M427.167,298.561c-1.82,3.347-4.817,7.785-8.682,9.772c0.025-0.315,0.05-0.622,0.078-0.923
				c0.348-3.922,0.84-6.675,0.84-6.675l6.135-7.545C425.537,293.191,426.252,295.306,427.167,298.561z"/>
			<path style="fill:#FDA084;" d="M430.407,313.561c-2.22,1.345-9.495,0.712-12.177,0.055c0.035-2.22,0.167-4.345,0.332-6.205
				l11.228,2.323C430.022,310.998,430.232,312.281,430.407,313.561z"/>
		</g>
		<path style="fill:#3B73AB;" d="M365.865,274.973c0,0-8.879,15.68-10.34,20.988c0,0,6.066,10.139,11.571,11.262l2.04-6.915
			C369.136,300.309,369.352,278.671,365.865,274.973z"/>
		<g>
			<path style="fill:#3B73AB;" d="M385.369,266.918l-19.504,8.055l8.629,66.839c0,0,26.847,3.771,40.729,0v-66.839l-18.962-8.478
				L385.369,266.918z"/>
			<g>
				<g>
					<path style="fill:#00528A;" d="M381.388,303.344c3.272,3.41,7.868,6.619,14.267,8.464c0.247,0.071,0.5-0.098,0.531-0.353
						c0-0.003,0.001-0.006,0.001-0.008c0.025-0.203-0.104-0.393-0.301-0.45c-6.237-1.798-10.711-4.925-13.897-8.246
						c-0.238-0.248-0.655-0.113-0.71,0.226c0,0.004-0.001,0.007-0.002,0.011C381.257,303.117,381.297,303.249,381.388,303.344z"/>
				</g>
				<g>
					<path style="fill:#00528A;" d="M381.55,296.984v0.018c0,0.068,0.017,0.134,0.051,0.193c0.216,0.374,0.462,0.765,0.745,1.167
						c1.545,2.2,4.464,5.114,9.603,6.503c0.033,0.01,0.067,0.013,0.1,0.013c0.169,0,0.324-0.113,0.37-0.284
						c0.055-0.203-0.065-0.414-0.27-0.47c-5.531-1.496-8.429-4.834-9.879-7.336C382.07,296.446,381.548,296.589,381.55,296.984z"/>
				</g>
				<g>
					<g>
						<path style="fill:#00528A;" d="M382.249,279.601c0,0.003,0,0.005,0.001,0.008c0.015,0.229,0.228,0.397,0.453,0.353
							c4.65-0.906,8.308-2.978,10.745-4.753c3.356-2.448,5.135-4.813,5.21-4.913c0.127-0.169,0.092-0.41-0.079-0.537
							c-0.169-0.127-0.41-0.09-0.537,0.078c-0.061,0.083-5.672,7.455-15.485,9.368C382.369,279.243,382.237,279.41,382.249,279.601z
							"/>
					</g>
				</g>
			</g>
		</g>
		<g>
			<g>
				<g>
					<path style="fill:#FFC0AD;" d="M352.29,384.344l2.092-10.762h-7.147l-1.746,10.161
						C345.488,383.743,348.352,385.608,352.29,384.344z"/>
					<path style="fill:#00528A;" d="M347.394,384.234c0,0-1.588-2.083-2.829-1.979c-1.241,0.104-10.735,7.831-14.011,8.498
						c-3.275,0.667-2.61,3.076-1.995,4.305c0.616,1.228,26.18-0.765,26.18-0.765s0.615-7.623-0.247-9.943
						C353.631,382.03,349.967,384.756,347.394,384.234z"/>
					<g>
						<g>
							<g>
								<g>
									<path style="fill:#FFFFFF;" d="M342.159,389.611c0.117,0.033,0.246,0.021,0.359-0.045c0.219-0.128,0.293-0.41,0.165-0.629
										c-0.043-0.073-1.065-1.803-2.422-2.467c-1.805-0.886-3.194,0.145-3.252,0.189c-0.202,0.153-0.241,0.442-0.088,0.644
										c0.153,0.202,0.442,0.241,0.644,0.087c0.038-0.028,1.005-0.723,2.291-0.095c1.106,0.542,2.024,2.091,2.033,2.106
										C341.951,389.507,342.049,389.579,342.159,389.611z"/>
								</g>
							</g>
						</g>
						<g>
							<g>
								<g>
									<path style="fill:#FFFFFF;" d="M343.515,388.3c0.116,0.033,0.246,0.021,0.359-0.045c0.219-0.128,0.293-0.41,0.165-0.629
										c-0.043-0.073-1.065-1.803-2.422-2.468c-1.807-0.887-3.194,0.144-3.252,0.189c-0.202,0.153-0.241,0.442-0.087,0.644
										c0.153,0.202,0.442,0.242,0.644,0.087c0.038-0.028,1.005-0.723,2.291-0.095c1.11,0.544,2.024,2.09,2.033,2.106
										C343.307,388.197,343.405,388.269,343.515,388.3z"/>
								</g>
							</g>
						</g>
						<g>
							<path style="fill:#FFFFFF;" d="M340.313,390.683c0.117,0.034,0.246,0.021,0.359-0.045c0.219-0.128,0.293-0.41,0.165-0.629
								c-0.043-0.073-1.065-1.803-2.422-2.468c-1.807-0.887-3.194,0.144-3.252,0.189c-0.202,0.153-0.241,0.442-0.087,0.644
								c0.153,0.202,0.442,0.241,0.645,0.087c0.038-0.028,1.005-0.723,2.291-0.095c1.111,0.544,2.024,2.09,2.033,2.106
								C340.105,390.579,340.203,390.651,340.313,390.683z"/>
						</g>
					</g>
				</g>
			</g>
			<g>
				<g>
					<g>
						<path style="fill:#FF7C78;" d="M384.722,335.109c0,0-12.233-30.374-19.836-29.175c-11.772,1.855-19.646,38.01-18.682,71.736
							l8.077,0.461c0,0,9.041-31.771,10.662-40.098c0,0,6.232,21.624,20.265,18.614
							C395.598,354.418,388.826,343.784,384.722,335.109z"/>
					</g>
				</g>
			</g>
			<g>
				<path style="fill:#D84E5A;" d="M353.324,376.739l-0.995-0.18c0.021-0.118,2.173-11.943,4.777-23.89
					c5.313-24.372,7.309-25.513,7.966-25.888c0.546-0.312,0.996-0.232,1.279-0.109c1.332,0.58,2,3.424,3.012,7.729
					c1.634,6.958,3.873,16.488,10.052,20.478l-0.548,0.849c-6.522-4.212-8.814-13.971-10.488-21.096
					c-0.804-3.423-1.564-6.656-2.431-7.034c-0.05-0.022-0.153-0.067-0.374,0.06C362.839,329.222,356.75,357.867,353.324,376.739z"/>
			</g>
			<polygon style="fill:#D84E5A;" points="345.403,375.196 355.306,376.025 355.496,376.041 354.953,379.322 345.221,378.638 			"/>
		</g>
		<g>
			<g>
				<path style="fill:#FF7C78;" d="M381.592,356.799c0,0,14.222,2.732,33.079-0.662c-1.553-7.793-5.078-13.91-10.826-19.346
					l-25.431,1.837C376.812,344.63,377.975,350.689,381.592,356.799z"/>
				<g>
					<g>
						<path style="fill:#00528A;" d="M377.535,381.937c0,0-3.369-0.74-4.288-0.681c-0.92,0.059-6.779,7.23-8.837,7.728
							c-3.733,0.905-3.475,6.784-1.171,6.974c6.665,0.549,17.878-2.756,17.878-2.756s0.708-7.591,0.149-9.938
							C380.706,380.917,379.418,382.55,377.535,381.937z"/>
						<path style="fill:#FFC0AD;" d="M379.515,382.449l2.478-9.669h-7.142l-1.603,9.329
							C373.248,382.108,375.58,383.712,379.515,382.449z"/>
						<g>
							<g>
								<g>
									<g>
										<path style="fill:#FFFFFF;" d="M372.334,388.621c0.119,0.021,0.247-0.005,0.352-0.083
											c0.204-0.151,0.247-0.438,0.097-0.643c-0.05-0.068-1.251-1.678-2.67-2.193c-1.888-0.688-3.158,0.484-3.211,0.534
											c-0.184,0.174-0.193,0.465-0.018,0.65c0.174,0.185,0.465,0.193,0.65,0.018c0.035-0.032,0.921-0.826,2.266-0.338
											c1.156,0.42,2.234,1.862,2.244,1.876C372.117,388.541,372.222,388.602,372.334,388.621z"/>
									</g>
								</g>
							</g>
							<g>
								<path style="fill:#FFFFFF;" d="M373.542,387.175c0.119,0.021,0.247-0.005,0.352-0.083c0.204-0.151,0.247-0.438,0.097-0.643
									c-0.05-0.068-1.25-1.678-2.67-2.194c-1.89-0.689-3.158,0.483-3.211,0.534c-0.184,0.174-0.193,0.465-0.018,0.65
									c0.174,0.185,0.465,0.193,0.649,0.018c0.035-0.032,0.922-0.826,2.266-0.338c1.161,0.422,2.233,1.862,2.244,1.876
									C373.324,387.094,373.429,387.155,373.542,387.175z"/>
							</g>
							<g>
								<path style="fill:#FFFFFF;" d="M370.615,389.884c0.119,0.021,0.247-0.005,0.352-0.083c0.204-0.151,0.248-0.439,0.097-0.643
									c-0.05-0.068-1.25-1.678-2.67-2.194c-1.89-0.689-3.158,0.484-3.211,0.534c-0.184,0.174-0.193,0.465-0.018,0.65
									c0.174,0.184,0.465,0.193,0.65,0.018c0.035-0.032,0.922-0.826,2.266-0.338c1.161,0.422,2.234,1.861,2.244,1.876
									C370.397,389.803,370.502,389.864,370.615,389.884z"/>
							</g>
						</g>
					</g>
				</g>
				<path style="fill:#FF7C78;" d="M412.934,356.645c-1.806,0.388-3.481,0.367-5.032,0.037c-0.509-0.108-1.004-0.249-1.483-0.421
					c-9.467-3.36-13.75-18.229-13.75-18.229c-1.621,8.328-10.997,40.078-10.997,40.078l-1.462-0.192l-1.008-0.135l-5.534-0.728
					c-1.089-32.65,7.172-69.267,18.94-71.12c7.603-1.2,19.837,29.175,19.837,29.175C416.55,343.784,423.32,354.417,412.934,356.645z
					"/>
				<g>
					<path style="fill:#D84E5A;" d="M407.902,356.682c-0.509-0.108-1.004-0.249-1.483-0.421c-3.464-5.577-5.271-13.379-6.727-19.661
						c-1.156-4.998-2.248-9.716-3.684-10.525c-0.219-0.121-0.435-0.142-0.684-0.057c-1.22,0.398-4.095,4.442-9.622,27.025
						c-2.635,10.764-4.819,21.492-5.493,24.875c-0.138,0.688-0.216,1.075-0.219,1.095L379,378.82
						c0.003-0.02,0.074-0.384,0.202-1.038c0.664-3.323,2.858-14.131,5.517-24.98c6.491-26.503,9.349-27.44,10.289-27.75
						c0.526-0.168,1.028-0.121,1.496,0.142c1.823,1.028,2.811,5.284,4.172,11.175C402.203,342.952,404.121,351.236,407.902,356.682z
						"/>
				</g>
				<polygon style="fill:#D84E5A;" points="373.01,374.752 382.785,376.538 382.973,376.572 382.114,379.784 372.495,378.161 				
					"/>
			</g>
		</g>
		<path style="fill:#3B73AB;" d="M415.223,274.973l12.648,18.321c0,0-5.617,10.589-11.122,11.698c0,0-5.73-10.012-6.404-15.124
			C409.673,284.756,413.247,275.413,415.223,274.973z"/>
		<g>
			<path style="fill:#01305A;" d="M378.954,246.625c0,7.11,4.377,12.009,11.487,12.009c7.11,0,12.064-5.268,12.064-12.377
				c0-7.11-4.21-12.496-11.32-12.496C382.659,233.761,378.954,239.515,378.954,246.625z"/>
			<path style="fill:#01305A;" d="M379.375,242.702c0,0-5.299-5.24-3.318-7.712c1.98-2.471,4.564-0.112,5.351-2.471
				c0.786-2.359,1.095-5.392,4.311-4.157c3.216,1.236,3.364,3.258,6.435,1.46c3.071-1.797,2.397,1.236,5.093,2.584
				c2.696,1.348,4.579,1.123,4.143,3.707c-0.436,2.584,2.587,3.118,1.349,5.974c-1.237,2.855-2.684,1.415-2.684,1.415
				L379.375,242.702z"/>
			<g>
				<path style="fill:#FDA084;" d="M380.552,249.686c0,0-1.975-2.634-3.444-0.456c-1.469,2.178,0.608,8.61,4.204,7.04
					L380.552,249.686z"/>
				<g>
					<path style="fill:#FF7972;" d="M380.526,254.283c-0.133,0-0.255-0.088-0.293-0.222c-0.557-1.986-2.615-2.791-2.635-2.799
						c-0.157-0.06-0.235-0.235-0.176-0.392c0.059-0.157,0.235-0.236,0.391-0.177c0.096,0.036,2.363,0.916,3.005,3.203
						c0.045,0.162-0.049,0.329-0.211,0.375C380.581,254.279,380.554,254.283,380.526,254.283z"/>
				</g>
				<g>
					<g>
						<g>
							<path style="fill:#FF7972;" d="M378.45,253.282c-0.056,0-0.113-0.016-0.164-0.049c-0.141-0.091-0.182-0.279-0.091-0.42
								c0.015-0.023,0.379-0.579,1.141-0.919c0.152-0.069,0.333,0,0.401,0.153c0.069,0.153,0,0.333-0.153,0.401
								c-0.589,0.264-0.875,0.69-0.878,0.694C378.647,253.233,378.549,253.282,378.45,253.282z"/>
						</g>
					</g>
				</g>
			</g>
			<g>
				<path style="fill:#FDA084;" d="M400.908,249.686c0,0,1.975-2.634,3.444-0.456c1.469,2.178-0.608,8.61-4.204,7.04
					L400.908,249.686z"/>
				<g>
					<path style="fill:#FF7972;" d="M400.934,254.283c0.133,0,0.255-0.088,0.293-0.222c0.557-1.986,2.615-2.791,2.635-2.799
						c0.156-0.06,0.235-0.235,0.176-0.392c-0.059-0.157-0.235-0.236-0.391-0.177c-0.096,0.036-2.363,0.916-3.005,3.203
						c-0.045,0.162,0.049,0.329,0.211,0.375C400.879,254.279,400.907,254.283,400.934,254.283z"/>
				</g>
				<g>
					<g>
						<g>
							<path style="fill:#FF7972;" d="M403.011,253.282c0.056,0,0.113-0.016,0.164-0.049c0.141-0.091,0.182-0.279,0.091-0.42
								c-0.015-0.023-0.379-0.579-1.141-0.919c-0.152-0.069-0.333,0-0.401,0.153c-0.069,0.153,0,0.333,0.153,0.401
								c0.589,0.264,0.875,0.69,0.878,0.694C402.813,253.233,402.911,253.282,403.011,253.282z"/>
						</g>
					</g>
				</g>
			</g>
			<path style="fill:#FFC0AD;" d="M395.592,261.726v6.397c0,0-1.908,3.258-4.487,3.479c-2.577,0.225-4.868-2.805-4.868-2.805v-6.622
				L395.592,261.726z"/>
			<path style="fill:#FDA084;" d="M395.592,261.726v2.838c-1.731,1.921-4.805,2.401-9.355,1.729v-4.118L395.592,261.726z"/>
			<path style="fill:#FFC0AD;" d="M379.495,249.483c0.097,1.355,0.257,2.786,0.519,4.211c0.857,4.715,2.789,9.352,6.953,10.841
				c9.425,3.366,12.794-4.718,14.14-9.431c0.148-0.522,0.281-1.105,0.398-1.727c0.214-1.123,0.38-2.376,0.51-3.638
				c0.154-1.531,0.257-3.079,0.32-4.441c0.139-2.868-1.579-5.5-4.263-6.533c-3.864-1.485-9.736-2.66-15.3,0.495
				c-2.056,1.162-3.345,3.321-3.39,5.682C379.359,246.225,379.377,247.792,379.495,249.483z"/>
			<path style="fill:#01305A;" d="M379.495,249.483c0.097,1.355,0.257,2.786,0.519,4.211c0.857,4.715,2.789,9.352,6.953,10.841
				c9.425,3.366,12.794-4.718,14.14-9.431c0.148-0.522,0.281-1.105,0.398-1.727c0.214-1.123,0.38-2.376,0.51-3.638h-1.377
				c-0.287,0.878-1.82,6.225-2.319,6.986c-1.072-2.569-6.512-0.863-6.512-0.863l-0.027,0.009c-0.329,0.103-0.67,0.157-1.011,0.157
				c-0.353,0-0.703-0.057-1.042-0.166c0,0-5.377-1.781-6.491,0.67c-0.492-0.764-2.258-6.213-2.575-6.792L379.495,249.483z
				 M390.756,257.024c6.152-0.83,5.183,2.481,5.183,2.481c-0.682,0.625-1.307,1.078-1.724,1.313
				c-1.343,0.749-2.666,1.033-3.625,0.987c-0.942-0.042-1.202,0.154-3.59-1.138c-0.423-0.226-0.848-0.561-1.265-0.96
				c0,0,0,0-0.003,0v-0.003C385.629,259.059,384.588,255.964,390.756,257.024z"/>
			<path style="fill:#01305A;" d="M386.688,250.521c0,0.683-0.352,1.236-0.786,1.236c-0.434,0-0.786-0.554-0.786-1.236
				s0.352-1.236,0.786-1.236C386.336,249.285,386.688,249.838,386.688,250.521z"/>
			<path style="fill:#01305A;" d="M395.953,250.496c0,0.683-0.352,1.236-0.786,1.236c-0.434,0-0.786-0.553-0.786-1.236
				c0-0.683,0.352-1.236,0.786-1.236C395.601,249.259,395.953,249.813,395.953,250.496z"/>
			<path style="fill:#01305A;" d="M382.517,247.497c0,0,2.58-1.957,5.083-1.617l0.124,1.304c0,0-3.355,0.639-4.819,1.77
				C382.623,248.517,382.466,248.04,382.517,247.497z"/>
			<path style="fill:#01305A;" d="M398.593,247.497c0,0-2.58-1.957-5.083-1.617l-0.124,1.304c0,0,3.355,0.639,4.819,1.77
				C398.487,248.517,398.644,248.04,398.593,247.497z"/>
			<g>
				<path style="fill:#FDA084;" d="M390.836,255.306c0.513,0,1.021-0.199,1.1-0.232c0.155-0.064,0.23-0.241,0.166-0.396
					c-0.063-0.155-0.241-0.23-0.396-0.167c-0.274,0.111-0.933,0.286-1.219,0.115c-0.055-0.033-0.13-0.098-0.149-0.283
					c-0.11-1.061,0.181-4.618,0.184-4.654c0.014-0.167-0.111-0.314-0.278-0.328c-0.168-0.014-0.314,0.111-0.328,0.278
					c-0.012,0.148-0.298,3.65-0.183,4.767c0.043,0.42,0.264,0.635,0.442,0.742C390.369,255.265,390.603,255.306,390.836,255.306z"/>
			</g>
			<path style="fill:#FFFFFF;" d="M390.425,257.533c-2.272,0-2.41,3.42-0.142,3.542c0.085,0.005,0.171,0.007,0.259,0.007
				c0.087,0,0.172-0.002,0.256-0.006c2.277-0.11,2.15-3.543-0.13-3.543H390.425z"/>
			<path style="fill:#01305A;" d="M402.015,249.74h-1.377c0.152-1.382,0.37-3.818-0.765-4.167c-3.589-1.102,1.062-3.638-0.558-4.902
				c-1.62-1.267-5.652-0.724-8.455-0.815c-2.821-0.091-7.355-0.051-8.455,0.204c-1.103,0.252-0.498,2.084-0.094,3.503
				c0.407,1.416-1.352,2.985-1.647,4.452c-0.085,0.421-0.067,1.047,0,1.725h-1.148c-0.136-1.786-0.157-3.449-0.132-4.798
				c0.046-2.361,1.334-4.519,3.388-5.683c5.564-3.154,11.435-1.978,15.301-0.492c2.683,1.03,4.4,3.665,4.264,6.531
				C402.272,246.66,402.171,248.209,402.015,249.74z"/>
		</g>
		<g>
			<path style="fill:#00528A;" d="M464.807,356.088c-1.707,6.665-6.485,11.72-13.813,14.62c-1.938,0.767-3.81,1.288-5.418,1.637
				c0.058-0.075,0.113-0.15,0.168-0.225c1.14-1.573,2.107-3.275,2.878-5.083c4.835-1.755,10.328-5.215,12.07-12.005
				c1.673-6.527-1.025-16.292-6.877-24.875c-4.638-6.803-15.165-18.55-33.575-20.825c-16.073-1.988-26.515,0.455-35.725,2.61
				c-7.83,1.83-15.225,3.557-24.275,1.975c-6.645-1.165-11.747-2.852-16.247-4.342c-8.28-2.74-13.75-4.547-22.438-0.99
				c-14.65,6.003-21.182,30.883-21.247,31.133l-4.117-1.053c0.285-1.107,7.122-27.197,23.755-34.012
				c10.14-4.155,16.867-1.93,25.382,0.887c4.363,1.445,9.308,3.08,15.645,4.19c8.198,1.435,14.86-0.122,22.573-1.927
				c9.557-2.235,20.392-4.768,37.215-2.688c7.857,0.97,15.18,3.667,21.77,8.015c5.735,3.787,10.852,8.845,14.795,14.633
				C463.935,337.458,466.802,348.311,464.807,356.088z"/>
			<g>
				<path style="fill:#FF7C78;" d="M259.966,379.018l9.535-30.135c4.061-12.835,17.758-19.948,30.593-15.887h0
					c12.835,4.061,19.948,17.758,15.887,30.593l-9.535,30.135C287.132,387.614,279.346,385.15,259.966,379.018z"/>
			</g>
		</g>
		<g>
			<g>
				<path style="fill:#FFC0AD;" d="M334.777,307.618c0,0,0.826-1.9,2.474-4.457c0.837-1.299,2.785-1.935,2.999-0.377
					c0.168,1.23-0.712,2.159-0.89,3.359c0,0,0.431-0.683,1.391-2.457c0.868-1.604,2.057-1.484,2.235-0.269
					c0.167,1.147-0.168,1.101-0.453,1.97c-0.379,1.155-0.915,2.595-0.915,2.595s0.413-1.671,1.831-3.59
					c0.649-0.878,1.295-1.852,2.255-0.491c0.482,0.683-0.154,2.541-0.67,4.529c0,0,1.035-2.663,2.367-3.348
					c1.053-0.541,1.593-0.066,1.184,1.402c-0.527,1.894-0.862,2.414-1.262,3.535c-0.401,1.121-1.869,2.724-3.034,2.354
					c-1.165-0.371-1.417-1.185-2.211-1.242c-0.794-0.057-2.066,0.015-2.606-0.476c-0.54-0.49-1.101-0.601-2.022-0.633
					C336.546,309.991,334.726,308.822,334.777,307.618z"/>
			</g>
		</g>
		<g>
			<path style="fill:#FFC0AD;" d="M417.29,309.465c0,0,0.523-2.004,1.759-4.784c0.627-1.412,2.216-2.427,2.667-0.921
				c0.356,1.189-0.133,2.329-0.124,3.542c0,0,0.321-0.741,0.996-2.642c0.611-1.719,1.805-1.783,2.167-0.61
				c0.342,1.108,0.003,1.114-0.144,2.016c-0.196,1.199-0.505,2.705-0.505,2.705s0.151-1.715,1.256-3.829
				c0.506-0.967,0.994-2.029,2.152-0.833c0.581,0.6,0.239,2.535,0.035,4.578c0,0,0.241-2.442,1.451-3.323
				c0.957-0.697,1.936-0.659,1.758,0.854c-0.23,1.953-0.48,2.518-0.703,3.687c-0.223,1.17-1.427,2.979-2.635,2.792
				c-1.208-0.187-1.583-0.953-2.376-0.887c-0.793,0.066-2.039,0.332-2.648-0.069c-0.609-0.402-1.181-0.425-2.095-0.314
				C419.403,311.537,417.424,310.662,417.29,309.465z"/>
		</g>
		<g>
			<g>
				<g>
					<path style="fill:#00528A;" d="M255.25,408.143c0,0.827-0.335,1.577-0.878,2.12c-0.542,0.543-1.292,0.88-2.122,0.88H240.3v-6
						h11.95C253.907,405.143,255.25,406.486,255.25,408.143z"/>
				</g>
				<g>
					<path style="fill:#00528A;" d="M255.25,429.476c0,0.83-0.335,1.58-0.878,2.122c-0.542,0.543-1.292,0.878-2.122,0.878H240.3v-6
						h11.95C253.907,426.476,255.25,427.818,255.25,429.476z"/>
				</g>
				<g>
					<g>
						<rect x="240.3" y="405.143" style="fill:#01305A;" width="5.45" height="6"/>
					</g>
				</g>
				<g>
					<g>
						<rect x="240.3" y="426.476" style="fill:#01305A;" width="5.45" height="6"/>
					</g>
				</g>
			</g>
			<g>
				<path style="fill:#00528A;" d="M192.875,415.298l-0.165,4.747c-49.533-1.737-87.948-5.35-114.173-10.737
					c-22.49-4.618-36.575-10.555-43.06-18.148c-3.33-3.9-4.717-8.335-4.122-13.183c1.002-8.167,8.26-14.195,21.607-17.972
					c0.2,1.603,0.543,3.158,1.02,4.655c-8.96,2.583-17.047,6.855-17.912,13.898c-0.433,3.517,0.555,6.632,3.02,9.517
					c5.69,6.665,19.285,12.242,40.402,16.58C105.46,409.991,143.607,413.571,192.875,415.298z"/>
			</g>
			<g>
				<path style="fill:#FF7C78;" d="M240.3,443.184h-31.607c-13.462,0-24.375-10.913-24.375-24.375l0,0
					c0-13.462,10.913-24.375,24.375-24.375l31.607,0C240.3,414.691,240.3,422.858,240.3,443.184z"/>
			</g>
		</g>
	</g>
	<g>
		<g>
			<g>
				<path style="fill:#FF7C78;" d="M457.126,227.954v16.168c0,2.137-1.734,3.871-3.871,3.871h-29.356l-8.863,3.18
					c-0.91,0.327-1.781-0.568-1.432-1.468l3.353-8.658v-13.093c0-2.137,1.734-3.871,3.873-3.871h32.425
					C455.392,224.083,457.126,225.817,457.126,227.954z"/>
			</g>
			<g>
				<g>
					<circle style="fill:#FF7C78;" cx="428.823" cy="236.498" r="2.8"/>
					<circle style="fill:#FF7C78;" cx="437.688" cy="236.498" r="2.8"/>
					<circle style="fill:#FF7C78;" cx="446.552" cy="236.498" r="2.8"/>
				</g>
			</g>
		</g>
		<g>
			<g>
				<path style="fill:#FF7C78;" d="M308.874,129.553c0-3.645,2.966-6.611,6.611-6.611s6.611,2.966,6.611,6.611
					s-2.966,6.611-6.611,6.611S308.874,133.198,308.874,129.553z M310.948,129.553c0,2.501,2.035,4.537,4.537,4.537
					c2.501,0,4.537-2.035,4.537-4.537c0-2.502-2.035-4.537-4.537-4.537C312.983,125.016,310.948,127.051,310.948,129.553z"/>
			</g>
			<g>
				<path style="fill:#FF7C78;" d="M286.776,101.236c0-3.645,2.966-6.611,6.611-6.611c3.645,0,6.611,2.966,6.611,6.611
					c0,3.645-2.966,6.611-6.611,6.611C289.741,107.847,286.776,104.881,286.776,101.236z M288.85,101.236
					c0,2.502,2.035,4.537,4.537,4.537c2.502,0,4.537-2.035,4.537-4.537c0-2.502-2.035-4.537-4.537-4.537
					C290.885,96.7,288.85,98.735,288.85,101.236z"/>
			</g>
			<g>
				<g>
					<g>
						<path style="fill:#3B73AB;" d="M288.85,132.876c0.573,0,1.037-0.464,1.037-1.037v-4.573c0-0.573-0.464-1.037-1.037-1.037
							c-0.573,0-1.037,0.464-1.037,1.037v4.573C287.813,132.412,288.277,132.876,288.85,132.876z"/>
					</g>
					<g>
						<path style="fill:#3B73AB;" d="M288.85,140.878c0.573,0,1.037-0.464,1.037-1.037v-4.573c0-0.573-0.464-1.037-1.037-1.037
							c-0.573,0-1.037,0.464-1.037,1.037v4.573C287.813,140.414,288.277,140.878,288.85,140.878z"/>
					</g>
				</g>
				<g>
					<g>
						<path style="fill:#3B73AB;" d="M282.431,134.591h4.108c0.573,0,1.037-0.464,1.037-1.037c0-0.573-0.464-1.037-1.037-1.037
							h-4.108c-0.573,0-1.037,0.464-1.037,1.037C281.394,134.127,281.858,134.591,282.431,134.591z"/>
					</g>
					<g>
						<path style="fill:#3B73AB;" d="M291.16,134.591h4.108c0.573,0,1.037-0.464,1.037-1.037c0-0.573-0.465-1.037-1.037-1.037
							h-4.108c-0.573,0-1.037,0.464-1.037,1.037C290.123,134.127,290.588,134.591,291.16,134.591z"/>
					</g>
				</g>
			</g>
			<g>
				<g>
					<g>
						<g>
							<path style="fill:#00528A;" d="M316.759,102.409c0.573,0,1.037-0.464,1.037-1.037v-4.573c0-0.573-0.464-1.037-1.037-1.037
								c-0.573,0-1.037,0.464-1.037,1.037v4.573C315.722,101.945,316.186,102.409,316.759,102.409z"/>
						</g>
						<g>
							<path style="fill:#00528A;" d="M316.759,110.411c0.573,0,1.037-0.464,1.037-1.037v-4.573c0-0.573-0.464-1.037-1.037-1.037
								c-0.573,0-1.037,0.464-1.037,1.037v4.573C315.722,109.947,316.186,110.411,316.759,110.411z"/>
						</g>
					</g>
					<g>
						<g>
							<path style="fill:#00528A;" d="M310.34,104.124h4.108c0.572,0,1.037-0.464,1.037-1.037c0-0.573-0.464-1.037-1.037-1.037
								h-4.108c-0.573,0-1.037,0.464-1.037,1.037C309.303,103.66,309.767,104.124,310.34,104.124z"/>
						</g>
						<g>
							<path style="fill:#00528A;" d="M319.07,104.124h4.108c0.573,0,1.037-0.464,1.037-1.037c0-0.573-0.464-1.037-1.037-1.037
								h-4.108c-0.573,0-1.037,0.464-1.037,1.037C318.033,103.66,318.497,104.124,319.07,104.124z"/>
						</g>
					</g>
				</g>
			</g>
		</g>
		<g>
			<g>
				<g>
					<path style="fill:#FF7C78;" d="M117.789,84.261c0-3.645,2.966-6.611,6.61-6.611c3.645,0,6.611,2.966,6.611,6.611
						c0,3.645-2.966,6.61-6.611,6.61C120.755,90.871,117.789,87.906,117.789,84.261z M119.863,84.261
						c0,2.501,2.035,4.537,4.537,4.537c2.502,0,4.537-2.035,4.537-4.537c0-2.502-2.035-4.537-4.537-4.537
						C121.898,79.724,119.863,81.759,119.863,84.261z"/>
				</g>
			</g>
			<g>
				<path style="fill:#3B73AB;" d="M92.368,96.7c0-3.645,2.965-6.611,6.611-6.611c3.645,0,6.61,2.966,6.61,6.611
					s-2.966,6.61-6.61,6.61C95.333,103.31,92.368,100.345,92.368,96.7z M94.442,96.7c0,2.502,2.035,4.537,4.537,4.537
					c2.502,0,4.537-2.035,4.537-4.537s-2.035-4.537-4.537-4.537C96.477,92.163,94.442,94.198,94.442,96.7z"/>
			</g>
			<g>
				<g>
					<g>
						<path style="fill:#FF7C78;" d="M88.564,114.494c0.573,0,1.037-0.464,1.037-1.037v-4.573c0-0.573-0.464-1.037-1.037-1.037
							c-0.573,0-1.037,0.464-1.037,1.037v4.573C87.527,114.03,87.991,114.494,88.564,114.494z"/>
					</g>
					<g>
						<path style="fill:#FF7C78;" d="M88.564,122.496c0.573,0,1.037-0.464,1.037-1.037v-4.573c0-0.573-0.464-1.037-1.037-1.037
							c-0.573,0-1.037,0.464-1.037,1.037v4.573C87.527,122.032,87.991,122.496,88.564,122.496z"/>
					</g>
				</g>
				<g>
					<g>
						<path style="fill:#FF7C78;" d="M82.145,116.209h4.108c0.573,0,1.037-0.464,1.037-1.037c0-0.573-0.464-1.037-1.037-1.037
							h-4.108c-0.573,0-1.037,0.464-1.037,1.037C81.108,115.744,81.573,116.209,82.145,116.209z"/>
					</g>
					<g>
						<path style="fill:#FF7C78;" d="M90.875,116.209h4.108c0.572,0,1.037-0.464,1.037-1.037c0-0.573-0.464-1.037-1.037-1.037
							h-4.108c-0.573,0-1.037,0.464-1.037,1.037C89.838,115.744,90.302,116.209,90.875,116.209z"/>
					</g>
				</g>
			</g>
			<g>
				<g>
					<g>
						<g>
							<path style="fill:#00528A;" d="M107.153,71.722c0.573,0,1.037-0.464,1.037-1.037v-4.573c0-0.573-0.464-1.037-1.037-1.037
								c-0.573,0-1.037,0.464-1.037,1.037v4.573C106.116,71.257,106.58,71.722,107.153,71.722z"/>
						</g>
						<g>
							<path style="fill:#00528A;" d="M107.153,79.724c0.573,0,1.037-0.464,1.037-1.037v-4.573c0-0.573-0.464-1.037-1.037-1.037
								c-0.573,0-1.037,0.464-1.037,1.037v4.573C106.116,79.26,106.58,79.724,107.153,79.724z"/>
						</g>
					</g>
					<g>
						<g>
							<path style="fill:#00528A;" d="M100.734,73.437h4.108c0.573,0,1.037-0.464,1.037-1.037c0-0.573-0.464-1.037-1.037-1.037
								h-4.108c-0.572,0-1.037,0.464-1.037,1.037C99.697,72.972,100.162,73.437,100.734,73.437z"/>
						</g>
						<g>
							<path style="fill:#00528A;" d="M109.464,73.437h4.108c0.573,0,1.037-0.464,1.037-1.037c0-0.573-0.464-1.037-1.037-1.037
								h-4.108c-0.573,0-1.037,0.464-1.037,1.037C108.427,72.972,108.891,73.437,109.464,73.437z"/>
						</g>
					</g>
				</g>
			</g>
		</g>
	</g>
</g>
<g id="DESIGNED_BY_FREEPIK">
	<g>
		<g id="XMLID_1_">
			<g id="XMLID_20_">
				<path id="XMLID_28_" style="fill:#112129;" d="M260.104,465.465c-0.432,0.443-0.803,0.931-1.108,1.453l-0.465-0.241
					c-0.067-0.298-0.349-0.503-0.659-0.466c-0.331,0.039-0.568,0.339-0.529,0.67c0.039,0.331,0.339,0.568,0.67,0.529
					c0.065-0.008,0.127-0.026,0.183-0.052l0.452,0.234c-0.251,0.554-0.433,1.139-0.539,1.744l0.747,0.132
					c0.23-1.306,0.85-2.507,1.792-3.473L260.104,465.465z"/>
				<path id="XMLID_27_" style="fill:#112129;" d="M265.592,463.163c-0.171,0-0.341,0.006-0.51,0.017l-0.074-0.626
					c0.188-0.149,0.296-0.389,0.266-0.645c-0.046-0.393-0.402-0.674-0.795-0.628c-0.393,0.046-0.674,0.402-0.628,0.795
					c0.03,0.254,0.189,0.461,0.405,0.564l0.073,0.624c-0.714,0.116-1.403,0.332-2.06,0.646l0.327,0.684
					c0.934-0.447,1.942-0.673,2.995-0.673c0.496,0,0.993,0.053,1.475,0.158l0.161-0.741
					C266.692,463.222,266.142,463.163,265.592,463.163z"/>
				<path id="XMLID_26_" style="fill:#112129;" d="M272.194,465.711c0.331-0.04,0.566-0.341,0.526-0.672
					c-0.04-0.331-0.341-0.566-0.672-0.526c-0.309,0.038-0.535,0.304-0.53,0.609l-0.416,0.363c-0.418-0.43-0.89-0.813-1.408-1.139
					l-0.404,0.641c1.134,0.715,2.021,1.726,2.563,2.925l0.691-0.313c-0.251-0.554-0.568-1.072-0.942-1.545l0.402-0.351
					C272.065,465.716,272.129,465.719,272.194,465.711z"/>
				<path id="XMLID_25_" style="fill:#112129;" d="M265.044,473.372c-0.386,0.023-0.775,0.035-1.157,0.035
					c-0.88,0-1.733-0.061-2.478-0.179c-0.39-0.062-0.846-0.155-1.27-0.292c1.046,1.861,3.069,3.125,5.388,3.125
					c2.855,0,5.262-1.916,5.95-4.504c-0.682,0.449-1.505,0.825-2.459,1.123C267.839,473.047,266.464,473.286,265.044,473.372z"/>
				<path id="XMLID_21_" style="fill:#112129;" d="M265.592,464.68c-3.352,0-6.08,2.666-6.08,5.943c0,0.426,0.046,0.849,0.137,1.261
					c0.673,0.483,2.706,0.89,5.348,0.731c2.879-0.173,5.297-0.957,6.672-2.159c-0.005-0.195-0.021-0.39-0.045-0.582
					C271.244,466.913,268.65,464.68,265.592,464.68z M263.432,471.194c-1.02,0-1.85-0.83-1.85-1.85c0-1.02,0.83-1.85,1.85-1.85
					c1.02,0,1.85,0.83,1.85,1.85C265.282,470.365,264.452,471.194,263.432,471.194z M268.17,470.286c-0.75,0-1.36-0.61-1.36-1.36
					s0.61-1.361,1.36-1.361c0.75,0,1.361,0.61,1.361,1.361S268.92,470.286,268.17,470.286z"/>
			</g>
			<path id="XMLID_18_" style="fill:#112129;" d="M281.595,466.547c-0.295-0.116-0.805-0.309-1.382-0.237
				c-0.551,0.069-0.844,0.341-0.844,1.007v0.866h2.228v1.717h-2.228v5.455h-1.932v-5.455h-1.34v-1.717h1.34v-0.888
				c0-1.68,0.896-2.783,2.568-2.783c0.643,0,1.157,0.122,1.59,0.308L281.595,466.547z"/>
			<path id="XMLID_16_" style="fill:#112129;" d="M286.298,469.879c-0.177-0.03-0.358-0.046-0.526-0.046
				c-0.896,0-1.51,0.548-1.51,1.614v3.908h-1.932v-7.172h1.873v0.785c0.451-0.673,1.14-0.977,2.021-0.977
				c0.414,0,0.848,0.128,1.094,0.337L286.298,469.879z"/>
			<path id="XMLID_13_" style="fill:#112129;" d="M293.965,471.757c0,0.222-0.015,0.489-0.037,0.651h-5.085
				c0.207,1.036,0.933,1.488,1.843,1.488c0.622,0,1.295-0.252,1.813-0.688l1.132,1.243c-0.814,0.748-1.85,1.088-3.057,1.088
				c-2.198,0-3.723-1.495-3.723-3.753c0-2.258,1.48-3.797,3.627-3.797C292.544,467.99,293.958,469.522,293.965,471.757z
				 M288.851,471.091h3.175c-0.177-0.918-0.733-1.436-1.562-1.436C289.554,469.655,289.021,470.203,288.851,471.091z"/>
			<path id="XMLID_10_" style="fill:#112129;" d="M301.618,471.757c0,0.222-0.015,0.489-0.037,0.651h-5.085
				c0.207,1.036,0.933,1.488,1.843,1.488c0.622,0,1.295-0.252,1.813-0.688l1.132,1.243c-0.814,0.748-1.85,1.088-3.057,1.088
				c-2.198,0-3.723-1.495-3.723-3.753c0-2.258,1.48-3.797,3.627-3.797C300.197,467.99,301.611,469.522,301.618,471.757z
				 M296.504,471.091h3.175c-0.178-0.918-0.733-1.436-1.562-1.436C297.207,469.655,296.674,470.203,296.504,471.091z"/>
			<path id="XMLID_7_" style="fill:#112129;" d="M309.964,471.764c0,2.154-1.495,3.775-3.471,3.775
				c-0.962,0-1.643-0.378-2.109-0.933v3.708h-1.924v-10.133h1.887v0.792c0.466-0.585,1.155-0.984,2.139-0.984
				C308.469,467.99,309.964,469.61,309.964,471.764z M304.287,471.764c0,1.132,0.747,1.976,1.843,1.976
				c1.14,0,1.85-0.881,1.85-1.976c0-1.095-0.71-1.976-1.85-1.976C305.035,469.788,304.287,470.632,304.287,471.764z"/>
			<path id="XMLID_4_" style="fill:#112129;" d="M313.068,465.836c0,0.696-0.54,1.229-1.236,1.229c-0.696,0-1.229-0.533-1.229-1.229
				c0-0.696,0.533-1.243,1.229-1.243C312.527,464.592,313.068,465.14,313.068,465.836z M312.809,475.354h-1.932v-7.172h1.932
				V475.354z"/>
			<path id="XMLID_2_" style="fill:#112129;" d="M316.032,470.736l2.701-2.554h2.368l-3.479,3.375l3.501,3.797h-2.376l-2.716-2.901
				v2.901H314.1v-10.658h1.932V470.736z"/>
		</g>
		<g>
			<path style="fill:#112129;" d="M184.412,475.289v-1.055c-0.527,0.718-1.391,1.23-2.387,1.23c-1.846,0-3.149-1.406-3.149-3.706
				c0-2.256,1.289-3.721,3.149-3.721c0.952,0,1.816,0.469,2.387,1.245v-3.765h1.099v9.77H184.412z M184.412,473.37v-3.208
				c-0.395-0.615-1.245-1.143-2.124-1.143c-1.421,0-2.27,1.172-2.27,2.739c0,1.567,0.85,2.724,2.27,2.724
				C183.168,474.483,184.017,473.986,184.412,473.37z"/>
			<path style="fill:#112129;" d="M186.932,471.744c0-2.051,1.465-3.706,3.486-3.706c2.139,0,3.398,1.67,3.398,3.794v0.279h-5.727
				c0.088,1.333,1.025,2.446,2.549,2.446c0.805,0,1.626-0.322,2.182-0.894l0.527,0.718c-0.703,0.703-1.655,1.084-2.812,1.084
				C188.44,475.465,186.932,473.956,186.932,471.744z M190.403,468.947c-1.509,0-2.256,1.274-2.314,2.358h4.643
				C192.718,470.25,192.015,468.947,190.403,468.947z"/>
			<path style="fill:#112129;" d="M194.607,474.351l0.571-0.791c0.469,0.542,1.362,1.011,2.329,1.011c1.084,0,1.67-0.513,1.67-1.216
				c0-1.714-4.38-0.659-4.38-3.281c0-1.098,0.952-2.036,2.636-2.036c1.201,0,2.051,0.454,2.622,1.026l-0.513,0.762
				c-0.424-0.513-1.201-0.894-2.109-0.894c-0.967,0-1.567,0.483-1.567,1.113c0,1.552,4.38,0.527,4.38,3.281
				c0,1.187-0.952,2.138-2.783,2.138C196.306,475.465,195.325,475.113,194.607,474.351z"/>
			<path style="fill:#112129;" d="M201.477,466.471c0-0.41,0.337-0.747,0.732-0.747c0.41,0,0.747,0.337,0.747,0.747
				c0,0.41-0.337,0.732-0.747,0.732C201.814,467.203,201.477,466.881,201.477,466.471z M201.667,475.289v-7.075h1.099v7.075H201.667
				z"/>
			<path style="fill:#112129;" d="M204.582,477.105l0.556-0.82c0.586,0.703,1.289,0.967,2.3,0.967c1.172,0,2.27-0.571,2.27-2.124
				v-1.011c-0.513,0.718-1.377,1.26-2.373,1.26c-1.845,0-3.149-1.377-3.149-3.662c0-2.27,1.289-3.677,3.149-3.677
				c0.952,0,1.802,0.469,2.373,1.245v-1.069h1.098v6.87c0,2.344-1.641,3.076-3.369,3.076
				C206.237,478.16,205.417,477.926,204.582,477.105z M209.709,473.253v-3.091c-0.381-0.615-1.23-1.143-2.109-1.143
				c-1.421,0-2.27,1.128-2.27,2.695c0,1.553,0.849,2.695,2.27,2.695C208.478,474.41,209.328,473.868,209.709,473.253z"/>
			<path style="fill:#112129;" d="M217.413,475.289v-4.629c0-1.245-0.63-1.641-1.582-1.641c-0.865,0-1.685,0.527-2.095,1.099v5.17
				h-1.099v-7.075h1.099v1.025c0.498-0.586,1.465-1.201,2.519-1.201c1.48,0,2.256,0.747,2.256,2.285v4.966H217.413z"/>
			<path style="fill:#112129;" d="M219.932,471.744c0-2.051,1.465-3.706,3.486-3.706c2.139,0,3.398,1.67,3.398,3.794v0.279h-5.727
				c0.088,1.333,1.025,2.446,2.549,2.446c0.806,0,1.626-0.322,2.183-0.894l0.527,0.718c-0.703,0.703-1.655,1.084-2.812,1.084
				C221.441,475.465,219.932,473.956,219.932,471.744z M223.404,468.947c-1.509,0-2.256,1.274-2.314,2.358h4.643
				C225.718,470.25,225.015,468.947,223.404,468.947z"/>
			<path style="fill:#112129;" d="M233.35,475.289v-1.055c-0.527,0.718-1.392,1.23-2.388,1.23c-1.846,0-3.149-1.406-3.149-3.706
				c0-2.256,1.289-3.721,3.149-3.721c0.952,0,1.817,0.469,2.388,1.245v-3.765h1.098v9.77H233.35z M233.35,473.37v-3.208
				c-0.396-0.615-1.245-1.143-2.124-1.143c-1.421,0-2.27,1.172-2.27,2.739c0,1.567,0.849,2.724,2.27,2.724
				C232.105,474.483,232.954,473.986,233.35,473.37z"/>
			<path style="fill:#112129;" d="M239.692,475.289v-9.77h1.098v3.765c0.572-0.776,1.421-1.245,2.388-1.245
				c1.845,0,3.149,1.465,3.149,3.721c0,2.299-1.304,3.706-3.149,3.706c-0.996,0-1.86-0.513-2.388-1.23v1.055H239.692z
				 M242.9,474.483c1.436,0,2.285-1.157,2.285-2.724c0-1.568-0.85-2.739-2.285-2.739c-0.864,0-1.728,0.527-2.109,1.143v3.208
				C241.171,473.986,242.036,474.483,242.9,474.483z"/>
			<path style="fill:#112129;" d="M247.528,477.061c0.161,0.073,0.425,0.117,0.601,0.117c0.483,0,0.805-0.161,1.055-0.747
				l0.469-1.069l-2.959-7.148h1.187l2.358,5.8l2.344-5.8h1.201l-3.545,8.51c-0.425,1.025-1.143,1.421-2.08,1.435
				c-0.234,0-0.601-0.044-0.806-0.103L247.528,477.061z"/>
		</g>
	</g>
</g>
</svg>
